<svg width="1024" height="1024" viewBox="0 0 1024 1024" xmlns="http://www.w3.org/2000/svg">
  <!-- Background -->
  <rect width="1024" height="1024" fill="#007AFF" rx="200"/>
  
  <!-- Note/Paper icon -->
  <rect x="200" y="150" width="624" height="724" fill="white" rx="40"/>
  
  <!-- Lines on the note -->
  <rect x="250" y="200" width="524" height="8" fill="#007AFF" rx="4"/>
  <rect x="250" y="230" width="400" height="8" fill="#007AFF" rx="4"/>
  <rect x="250" y="260" width="450" height="8" fill="#007AFF" rx="4"/>
  <rect x="250" y="290" width="380" height="8" fill="#007AFF" rx="4"/>
  <rect x="250" y="320" width="420" height="8" fill="#007AFF" rx="4"/>
  <rect x="250" y="350" width="360" height="8" fill="#007AFF" rx="4"/>
  <rect x="250" y="380" width="440" height="8" fill="#007AFF" rx="4"/>
  <rect x="250" y="410" width="390" height="8" fill="#007AFF" rx="4"/>
  <rect x="250" y="440" width="410" height="8" fill="#007AFF" rx="4"/>
  <rect x="250" y="470" width="370" height="8" fill="#007AFF" rx="4"/>
  <rect x="250" y="500" width="430" height="8" fill="#007AFF" rx="4"/>
  <rect x="250" y="530" width="350" height="8" fill="#007AFF" rx="4"/>
  <rect x="250" y="560" width="460" height="8" fill="#007AFF" rx="4"/>
  <rect x="250" y="590" width="380" height="8" fill="#007AFF" rx="4"/>
  <rect x="250" y="620" width="420" height="8" fill="#007AFF" rx="4"/>
  <rect x="250" y="650" width="400" height="8" fill="#007AFF" rx="4"/>
  <rect x="250" y="680" width="440" height="8" fill="#007AFF" rx="4"/>
  <rect x="250" y="710" width="360" height="8" fill="#007AFF" rx="4"/>
  <rect x="250" y="740" width="430" height="8" fill="#007AFF" rx="4"/>
  <rect x="250" y="770" width="390" height="8" fill="#007AFF" rx="4"/>
  <rect x="250" y="800" width="410" height="8" fill="#007AFF" rx="4"/>
  
  <!-- AI/Sparkle elements -->
  <circle cx="750" cy="200" r="15" fill="#FF9500"/>
  <circle cx="780" cy="230" r="12" fill="#FF9500"/>
  <circle cx="720" cy="260" r="10" fill="#FF9500"/>
  <circle cx="760" cy="290" r="8" fill="#FF9500"/>
  
  <!-- Pencil icon -->
  <path d="M 700 850 L 750 800 L 780 830 L 730 880 Z" fill="#FF3B30"/>
  <rect x="775" y="825" width="20" height="4" fill="#FF3B30" rx="2" transform="rotate(45 785 827)"/>
</svg> 